<svg width="16" height="16" viewBox="0 0 24 24" fill="none" xmlns="http://www.w3.org/2000/svg">
  <path d="M20 7h-3V6a2 2 0 0 0-2-2H9a2 2 0 0 0-2 2v1H4a1 1 0 0 0-1 1v11a1 1 0 0 1 1 1h16a1 1 0 0 1 1-1V8a1 1 0 0 0-1-1z" stroke="currentColor" stroke-width="2" stroke-linecap="round" stroke-linejoin="round"/>
  <path d="M14 12v3a1 1 0 0 1-1 1H9a1 1 0 0 1-1-1v-3" stroke="currentColor" stroke-width="2" stroke-linecap="round" stroke-linejoin="round"/>
  <path d="M16 6V4a2 2 0 0 0-2-2h-4a2 2 0 0 0-2 2v2" stroke="currentColor" stroke-width="2" stroke-linecap="round" stroke-linejoin="round"/>
</svg>